/* XPM */
static char * dtcltiny_32t_xpm[] = {
"32 32 58 1",
" 	c None",
".	c #FFFFFF",
"+	c #D5D5D5",
"@	c #F1F1F1",
"#	c #EFEFEF",
"$	c #C0C0C0",
"%	c #000000",
"&	c #404040",
"*	c #0E0E0E",
"=	c #121212",
"-	c #1C1C1C",
";	c #871515",
">	c #AA0000",
",	c #390000",
"'	c #710000",
")	c #FF0000",
"!	c #F10E0E",
"~	c #D52B2B",
"{	c #B34D4D",
"]	c #C93737",
"^	c #B84747",
"/	c #9C6464",
"(	c #494949",
"_	c #ED1212",
":	c #E61A1A",
"<	c #808080",
"[	c #B6B6B6",
"}	c #ABABAB",
"|	c #9E9E9E",
"1	c #444444",
"2	c #303030",
"3	c #B9B9B9",
"4	c #909090",
"5	c #C6C6AD",
"6	c #8E8E8E",
"7	c #B2B2B2",
"8	c #D7D773",
"9	c #797979",
"0	c #606060",
"a	c #505050",
"b	c #9A9A9A",
"c	c #999999",
"d	c #696969",
"e	c #00F000",
"f	c #00E000",
"g	c #EB0000",
"h	c #00D000",
"i	c #00C000",
"j	c #0BA00B",
"k	c #D80000",
"l	c #C40000",
"m	c #AD0000",
"n	c #0F9B0F",
"o	c #168016",
"p	c #1A751A",
"q	c #AC0000",
"r	c #970000",
"s	c #8F0000",
"                                ",
"                    . +@        ",
"                                ",
"                           #    ",
"                           $    ",
"               %%%%%       &&   ",
"               % % %       %%   ",
"               %%%%%%%*=%%%%%   ",
"               %%%%%%%%%%%%%%   ",
"               %%%%%%%%%%%%%%   ",
"               %$&%%%%%%%%%%%   ",
"               -&;>,,>'%>>%%%%  ",
"                 )!~{~]]^/(%%   ",
"                  _  ]  {:      ",
"  <<<     <<                    ",
"    <      <                    ",
"    <      <                    ",
"    <      <                    ",
"    [      <                    ",
"  <}++|   <<       ...+  ...+   ",
"    122    <       +334  +554   ",
"    <      <       +6}4  +554   ",
"  <<<     <<       +774  +884   ",
"    <      +..     900a  900a   ",
"    <     bc442                 ",
"    <      d       eeef  )))g   ",
"    <      <       hiij  kllm   ",
"  <<<     <<       hiij  kllm   ",
"    <      <       hiij  kllm   ",
"    <      <       noop  qrrs   ",
"  <<      <<                    ",
"                                "};
