/* XPM */
static char * dtcltiny_48r_xpm[] = {
"48 48 14 1",
" 	c None",
".	c #404040",
"+	c #C0C0C0",
"@	c #FFFFFF",
"#	c #808080",
"$	c #000000",
"%	c #FF0000",
"&	c #303030",
"*	c #F4F413",
"=	c #00F000",
"-	c #00C000",
";	c #C40000",
">	c #216021",
",	c #800000",
"...............................................+",
".                         @ @ @  @@@@          @",
".                           # @  ++@  @@       @",
".                             + @ @  @  @      @",
".                                 @ @  @ @@    @",
".                                     # +@     @",
".                                        +     @",
".                                        ++    @",
".                     $$$$$$$$           $$    @",
".                      $  $  $           $$    @",
".                      $  $  $   $#  $$  $$    @",
".                     $$$$$$$$$$$$$$$$$$$$$$   @",
".                     $$$$$$$$$$$$$$$$$$$$$$   @",
".                     $$$$$$$$$$$$$$$$$$$$$$   @",
".                     $$$$$$$$$$$$$$$$$$$$$$   @",
".                     $$++$$$$$$$$$$$$$$$$$$   @",
".                     $$++$$$$$$$$$$$$$$$$$$   @",
".                     #$$$%%%$$%%%$$%%%$$$$$$+ @",
".                         %%%% %%% %%###$$$    @",
".                         %%##########% $$$    @",
".                          %    %    %         @",
".  $$$$       $$$$                             @",
".     $          $                             @",
".     $          $                             @",
".     $          $                             @",
".  $$$$       $$$$                             @",
".     $          $                             @",
".     $          $                             @",
".     @@@@&      $                             @",
".  $$+++++&   $$$$          @@@@@@#  @@@@@@#   @",
".     &&&&&      $          @+++++&  @+++++&   @",
".     $          $          @++#++&  @++*++&   @",
".     $          $          @+##++&  @+++++&   @",
".  $$$$       $$$$          @++#++&  @+*+*+&   @",
".     $          $          @+++++&  @+++++&   @",
".     $          @@@@&      #&&&&&&  #&&&&&&   @",
".     $         +++++&                         @",
".  $$$$       $$$&&&&&                         @",
".     $          $          ======-  %%%%%%;   @",
".     $          $          =----->  %;;;;;,   @",
".     $          $          =----->  %;;;;;,   @",
".  $$$$       $$$$          =----->  %;;;;;,   @",
".     $          $          =----->  %;;;;;,   @",
".     $          $          =----->  %;;;;;,   @",
".     $          $          ->>>>>>  ;,,,,,,   @",
".  $$$$       $$$$                             @",
".                                              @",
"+@@@@@@@@@@@@@@@@@@@@@@@@@@@@@@@@@@@@@@@@@@@@@@@"};
