/* XPM */
static const char * dtcltiny_32[] = {
"32 32 77 1",
" 	c None",
".	c #C0C0C0",
"+	c #CECECE",
"@	c #C7C7C7",
"#	c #D5D5D5",
"$	c #B9B9B9",
"%	c #EAEAEA",
"&	c #F1F1F1",
"*	c #DCDCDC",
"=	c #A4A4A4",
"-	c #959595",
";	c #404040",
">	c #6B6B6B",
",	c #8E8E8E",
"'	c #ABABAB",
")	c #808080",
"!	c #151515",
"~	c #0E0E0E",
"{	c #393939",
"]	c #2B2B2B",
"^	c #000000",
"/	c #9C9C9C",
"(	c #1C1C1C",
"_	c #871515",
":	c #AA0000",
"<	c #390000",
"[	c #710000",
"}	c #EA4040",
"|	c #F10E0E",
"1	c #D52B2B",
"2	c #B98080",
"3	c #C75555",
"4	c #B84747",
"5	c #9C6464",
"6	c #646464",
"7	c #CE9595",
"8	c #E33939",
"9	c #D56464",
"0	c #878787",
"a	c #B2B2B2",
"b	c #BEBEBE",
"c	c #B0B0B0",
"d	c #9E9E9E",
"e	c #909090",
"f	c #525252",
"g	c #606060",
"h	c #A0A0A0",
"i	c #C6C6AD",
"j	c #D7D773",
"k	c #797979",
"l	c #505050",
"m	c #999999",
"n	c #7C7C7C",
"o	c #95CB95",
"p	c #40E040",
"q	c #40D540",
"r	c #95C095",
"s	c #DD4040",
"t	c #C19595",
"u	c #80D080",
"v	c #00D000",
"w	c #00C000",
"x	c #0BA00B",
"y	c #8BA08B",
"z	c #D58080",
"A	c #D80000",
"B	c #C40000",
"C	c #AD0000",
"D	c #AB8080",
"E	c #80C580",
"F	c #0F9B0F",
"G	c #168016",
"H	c #1A751A",
"I	c #C88080",
"J	c #AC0000",
"K	c #970000",
"L	c #8F0000",
".................+@@+.##+.......",
".................+$$%.#&+**.....",
".....................*##*+**+...",
"......................@@+=+%+...",
"................................",
"..............-;;;;;.......>>...",
"...............;.;.;..,$').;;...",
"..............-!;!;!;;~{]^;!!-..",
"..............)^^^^^^^^^^^^^^)..",
"..............)^^^^^^^^^^^^^^)..",
"..............)^.;^^^^^^^^^^^)..",
"............../(;_:<<:[^::^^^]..",
".................}|12133456^;...",
".................78''3''29')-...",
"..---....=-0....................",
"....-......-....................",
"..''-....a',....................",
"..''-....a',....................",
"....$#bc...-....................",
"..-a##de.=-0......+%%%+a+%%%+a..",
"....fggh...-......##$$ee##iiee..",
"....-......-......##,'ee##iiee..",
"..---....=-0......##aaee##jjee..",
"....-......+%%)...$kggle$kggle..",
"..''-....a'meeg.................",
"..''-....a'neeh...opppqr7}}}st..",
"....-......-......uvwwxyzABBCD..",
"..---....=-0......uvwwxyzABBCD..",
"....-......-......uvwwxyzABBCD..",
"....-......-......EFGGHyIJKKLD..",
"..--=....=--....................",
"................................"};
