/* XPM */
static char * dtcltiny_48t_xpm[] = {
"48 48 13 1",
" 	c None",
".	c #FFFFFF",
"+	c #808080",
"@	c #C0C0C0",
"#	c #000000",
"$	c #FF0000",
"%	c #303030",
"&	c #F4F413",
"*	c #00F000",
"=	c #00C000",
"-	c #C40000",
";	c #216021",
">	c #800000",
"                                                ",
"                          . . .  ....           ",
"                            + .  @@.  ..        ",
"                              @ . .  .  .       ",
"                                  . .  . ..     ",
"                                      + @.      ",
"                                         @      ",
"                                         @@     ",
"                      ########           ##     ",
"                       #  #  #           ##     ",
"                       #  #  #   #+  ##  ##     ",
"                      ######################    ",
"                      ######################    ",
"                      ######################    ",
"                      ######################    ",
"                      ##@@##################    ",
"                      ##@@##################    ",
"                      +###$$$##$$$##$$$######@  ",
"                          $$$$ $$$ $$+++###     ",
"                          $$++++++++++$ ###     ",
"                           $    $    $          ",
"   ####       ####                              ",
"      #          #                              ",
"      #          #                              ",
"      #          #                              ",
"   ####       ####                              ",
"      #          #                              ",
"      #          #                              ",
"      ....%      #                              ",
"   ##@@@@@%   ####          ......+  ......+    ",
"      %%%%%      #          .@@@@@%  .@@@@@%    ",
"      #          #          .@@+@@%  .@@&@@%    ",
"      #          #          .@++@@%  .@@@@@%    ",
"   ####       ####          .@@+@@%  .@&@&@%    ",
"      #          #          .@@@@@%  .@@@@@%    ",
"      #          ....%      +%%%%%%  +%%%%%%    ",
"      #         @@@@@%                          ",
"   ####       ###%%%%%                          ",
"      #          #          ******=  $$$$$$-    ",
"      #          #          *=====;  $----->    ",
"      #          #          *=====;  $----->    ",
"   ####       ####          *=====;  $----->    ",
"      #          #          *=====;  $----->    ",
"      #          #          *=====;  $----->    ",
"      #          #          =;;;;;;  ->>>>>>    ",
"   ####       ####                              ",
"                                                ",
"                                                "};
