/* XPM */
static char * dtcltiny_16_xpm[] = {
"16 16 28 1",
" 	c None",
".	c #C0C0C0",
"+	c #C7C7C7",
"@	c #CECECE",
"#	c #EEEEEE",
"$	c #FFFFFF",
"%	c #C4C4C4",
"&	c #BEBEBE",
"*	c #BCBCBC",
"=	c #404040",
"-	c #000000",
";	c #808080",
">	c #ABABAB",
",	c #555555",
"'	c #6B6B6B",
")	c #4E4E4E",
"!	c #C30000",
"~	c #390000",
"{	c #1C0000",
"]	c #2B2B2B",
"^	c #C06B6B",
"/	c #B98080",
"(	c #D54747",
"_	c #646464",
":	c #959595",
"<	c #B9B9B9",
"[	c #B2B2B2",
"}	c #00C000",
"........+@#$%&..",
"..........+@*&..",
".......=-;...=>.",
".......--,;=,-'.",
".=-....-------=.",
"..$....)!~!{!-].",
".=-.....!^!/(_:.",
"..$.............",
".=-.............",
"..$$$$..<.......",
"[=---;..........",
"..$,,,.$$$;$$$;.",
".=-....$!!,$}},.",
"..$....$!!,$}},.",
".=-....;,,,;,,,.",
"................"};
