/* XPM */
static const char *brake[] = {
"21 16 2 1",
" 	c None",
".	c #000000",
"                     ",
"                     ",
"    .   ....    .    ",
"   ..  .......  ..   ",
"  ..  ...   ...  ..  ",
"  .  ...     ..   .  ",
"  .  ..       ..  .  ",
"  .  ..       ..  .  ",
"  .  ..       ..  .  ",
"  .  ..       ..  .  ",
"  ..  ..     ..  ..  ",
"   .. ........  ..   ",
"    .   .....   .    ",
"                     ",
"                     ",
"                     "};
