/* XPM */
static const char * controllershow_xpm[] = {
"22 22 4 1",
" 	c None",
".	c #000000",
"+	c #404040",
"@	c #C0C0C0",
"                      ",
"     ...........      ",
"                      ",
"++++++ ....... ++++++ ",
"@@@@@+ .@@@@@. +@@@@@ ",
"@+@+@+ .@+@+@. +@+@+@ ",
"@+@@@+ .@+@@@. +@+@@@ ",
"@+@+@+ .@+@+@. +@+@+@ ",
"@+@@@+ .@+@@@. +@+@@@ ",
"@+@@@+ .@+@@@. +@+@@@ ",
"@+@@@+ .@+@@@. +@+@@@ ",
"@@@@@+ .@@@@@. +@@@@@ ",
"@+@+@+ .@+@+@. +@+@+@ ",
"@@@@@+ .@@@@@. +@@@@@ ",
"@+@+@+ .@+@+@. +@+@+@ ",
"@@@@@+ .@@@@@. +@@@@@ ",
"@+@+@+ .@+@+@. +@+@+@ ",
"@@@@@+ .@@@@@. +@@@@@ ",
"++++++ ....... ++++++ ",
"                      ",
"     ...........      ",
"                      "};
