/* XPM */
static const char * daemonsettings_xpm[] = {
"22 22 9 1",
" 	c None",
".	c #000000",
"+	c #C0C0C0",
"@	c #2AC65D",
"#	c #15612E",
"$	c #C44A0F",
"%	c #404040",
"&	c #008000",
"*	c #5E2407",
"                      ",
"........             .",
".++++++.            .@",
".++++++.           .@@",
".++++++.          .@@@",
".++++++.         .@@@@",
".++++++.        .@@@@#",
".++++++.       .@@@@##",
".++++++.      .@@@@@##",
".++++++.     .@@@@@###",
".++++++.    .@@@@@####",
".++++++.   .@@@@@####.",
".++++++.  .$@@@@####. ",
".++++++.  .$$@@####.  ",
".+%%%%+.  .$$$####.   ",
".++++++.  .$$**##.    ",
".+%%%%+.  .$****.     ",
".++++++.  ......      ",
".+%%%%+.              ",
".++++++.              ",
"........              ",
"                      "};
