/* XPM */
static const char *emergency[]={
"26 26 4 1",
"c c #808080",
"a c #303030",
". c None",
"b c #ff0000",
"..........................",
"..........................",
".......aaaaaaaaaaaa.......",
".......a..........a.......",
"aaaaaaaa..........aaaaaaaa",
"aaaaaaaa..........aaaaaaaa",
".......a..........a.......",
".......aaaaaaaaaaaa.......",
"............aa............",
"............aa............",
"............aa............",
"............aa............",
"............aa............",
"............aa............",
"........bbbbbbbbbb........",
".......bccccccccccb.......",
".......bc.........bc......",
".......bc.........bc......",
".......bc.........bc......",
".......bc.........bc......",
"........bbbbbbbbbb........",
".........ccccccccc........",
"..........................",
"..........................",
"..........................",
".........................."};
