/* XPM */
static const char *fdirection[] = {
"19 16 2 1",
" 	c None",
".	c #0000FF",
"           .       ",
"           ..      ",
"           ...     ",
"           ....    ",
"................   ",
".................  ",
".................. ",
"...................",
"...................",
".................. ",
".................  ",
"................   ",
"           ....    ",
"           ...     ",
"           ..      ",
"           .       "};
