/* XPM */
static const char * lock_xpm[] = {
"30 30 45 1",
".	c None",
"+	c #FFFFFB",
"@	c #EED9C2",
"#	c #B0A49D",
"$	c #9C9FA7",
"%	c #CCCCCC",
"&	c #F4FDFF",
"*	c #FFFDF0",
"=	c #D0A073",
"-	c #575555",
";	c #555555",
">	c #B2B2B2",
",	c #E5E5E5",
"'	c #FFFFFD",
")	c #EEC386",
"!	c #5C5555",
"~	c #7F7F7F",
"{	c #DCD6C6",
"]	c #AB8765",
"^	c #F5FEFF",
"/	c #FFFDEC",
"(	c #BC7955",
"_	c #666666",
":	c #FFF9DE",
"<	c #A66B55",
"[	c #FFFADE",
"}	c #A26855",
"|	c #999999",
"1	c #FFFFF6",
"2	c #D08A5C",
"3	c #FFF9DC",
"4	c #9F6755",
"5	c #D28C5C",
"6	c #FFFBE6",
"7	c #B88A6C",
"8	c #5A5555",
"9	c #55555A",
"0	c #646869",
"a	c #696969",
"b	c #696968",
"c	c #625655",
"d	c #FFF5CA",
"e	c #805555",
"f	c #555562",
"g	c #A26E55",
"..............................",
"..............................",
"..............................",
"..............................",
"..............................",
"..............................",
"..............................",
"..............................",
"............+@#$%&............",
"...........*=-;;;>,...........",
"..........')!~%{];>^..........",
"........../(_%..:<~,..........",
"..........[}|,..12_,..........",
"..........34|,..15_,..........",
".........67890aabc;~,.........",
".........de;;;;;;;;f%.........",
".........de;;;;;;;;f%.........",
".........de;;;;;;;;f%.........",
".........de;;;;;;;;f%.........",
".........de;;;;;;;;f%.........",
".........3g;;;;;;;;~,.........",
"..............................",
"..............................",
"..............................",
"..............................",
"..............................",
"..............................",
"..............................",
"..............................",
".............................."};
