/* XPM */
static const char *newloco[]={
"22 22 5 1",
"# c #c0c0c0",
"a c #303030",
". c None",
"b c #ffffff",
"c c #ff0000",
"......................",
"......................",
"......................",
"......##aaaaa###......",
"......#...a....#......",
"......#...a##..#......",
"......#.bbbbbb.#......",
"......#bbaaaabb#......",
"......bbaaaaaabb......",
"......bbaaaaaabb......",
"......bbbbbbbbbb......",
"......bbbbbbbbbb......",
"......bbbbbbbbbb......",
"......bbbaaaabbb......",
"......cccccccccc......",
"......bbbbbbbbbb......",
"......bbbbbbbbbb......",
"......#.a.##.a.#......",
"......#.a####a.#......",
"......................",
"......................",
"......................"};
