/* XPM */
static const char * programmeruhl_xpm[] = {
"22 22 6 1",
" 	c None",
".	c #C0C0C0",
"+	c #999999",
"@	c #000000",
"#	c #404040",
"$	c #FFFFFF",
"                      ",
"......................",
"......................",
"......................",
"..++.++.++.++.++.++...",
"..++.++.++.++.++.++...",
".@@@@@@@@@@@@@@@@@@@..",
".@@@@@@@@@@@@@@@@@@@#.",
".@$@@@$@$@@@$@$@@@@@#.",
".@$@@@$@$@@@$@$@@@@@#.",
".@$@@@$@$@@@$@$@@@@@#.",
".@$@@@$@$$$$$@$@@@@@#.",
".@$@@@$@$@@@$@$@@@@@#.",
".@$@@@$@$@@@$@$@@@@@#.",
".@$@@@$@$@@@$@$@@@@@#.",
".@$$$$$@$@@@$@$$$$$@#.",
".@@@@@@@@@@@@@@@@@@@#.",
".@@@@@@@@@@@@@@@@@@@#.",
"..++#++#++#++#++#++##.",
"..++.++.++.++.++.++...",
"......................",
"                      "};
