/* XPM */
static const char * routesclear_xpm[] = {
"22 22 6 1",
" 	c None",
".	c #FF0000",
"+	c #C0C0C0",
"@	c #0FD100",
"#	c #404040",
"$	c #000000",
"                      ",
"                      ",
"  ..++++++++++++++..  ",
"  ...++.+++@+++#+...  ",
"  +...++++++++++...+  ",
"    ...        ...    ",
"     ...      ...     ",
"  ++++...++++...++++  ",
"  +$$++...+....#++#+  ",
"  ++++++......++++++  ",
"         ....         ",
"         ....         ",
"  ++++++......++++++  ",
"  +$$++...+@...#++#+  ",
"  ++++...++++...++++  ",
"     ...      ...     ",
"    ...        ...    ",
"  +...++++++++++...+  ",
"  ...++.+++@+++#+...  ",
"  ..++++++++++++++..  ",
"                      ",
"                      "};
