/* XPM */
static const char * route_activated_xpm[] = {
"12 12 5 1",
" 	c None",
".	c #000000",
"+	c #020202",
"@	c #808080",
"#	c #FFFF00",
"            ",
" .......... ",
" +@@@@@@@@. ",
" .@@@@@@@@. ",
" .@@@@@@@@. ",
" .@@@@@@@@. ",
" .########. ",
" .########. ",
" .########. ",
" .########. ",
" .......... ",
"            "};
