/* XPM */
static const char * routesshow_xpm[] = {
"22 22 6 1",
" 	c None",
".	c #C0C0C0",
"+	c #000000",
"@	c #FF0000",
"#	c #0FD100",
"$	c #404040",
"                      ",
"                      ",
"  ..................  ",
"  .++..@...#...$..$.  ",
"  ..................  ",
"                      ",
"                      ",
"  ..................  ",
"  .++..#...@...$..$.  ",
"  ..................  ",
"                      ",
"                      ",
"  ..................  ",
"  .++..@...#...$..$.  ",
"  ..................  ",
"                      ",
"                      ",
"  ..................  ",
"  .++..@...#...$..$.  ",
"  ..................  ",
"                      ",
"                      "};
