/* XPM */
static const char * signal_hp0_xpm[] = {
"16 14 3 1",
" 	c None",
".	c #000000",
"+	c #FF0000",
"      ....      ",
"     ......     ",
"     ......     ",
"     ......     ",
"     ......     ",
"     ......     ",
"     ..++..     ",
"     .++++.     ",
"     ++++++     ",
"     .++++.     ",
"     ..++..     ",
"     ......     ",
"      ....      ",
"       ..       "};
