/* XPM */
static const char*stoppower[]={
"22 22 4 1",
"a c #a26914",
"b c #303030",
". c None",
"# c #ff0000",
"......................",
"......................",
"......................",
"...........##.........",
"..........##..........",
".........##.......#...",
".....#####...######...",
".....####....######...",
".....#............#...",
".....#................",
".....#................",
"....a#.a..a..a..a.....",
"...bbbbbbbbbbbbbbbb...",
"....a..a..a..a..a.....",
"....a..a..a..a..a.....",
"....a..a..a..a..a.....",
"...bbbbbbbbbbbbbbbb...",
"....a..a..a..a..a.....",
"......................",
"......................",
"......................",
"......................"};
