/* XPM */
static const char * viewtoolbar_xpm[] = {
"22 22 5 1",
" 	c None",
".	c #E5E5E5",
"+	c #000000",
"@	c #C0C0C0",
"#	c #404040",
"                      ",
".+++++++++++++++++++++",
".+@@@@#@@@#@@@#@@@#@@+",
".+@@@@#@@@#@@@#@@@#@@+",
".+++++++++++++++++++++",
".#@@@@@@@@@@@@@@@@@@@#",
".#@@@@@@@@@@@@@@@@@@@#",
".#@@@@@@@@@@@@@@@@@@@#",
".#@@@@@@@@@@@@@@@@@@@#",
".#@@@@@@@@@@@@@@@@@@@#",
".#@@@@@@@@@@@@@@@@@@@#",
".#@@@@@@@@@@@@@@@@@@@#",
".#@@@@@@@@@@@@@@@@@@@#",
".#@@@@@@@@@@@@@@@@@@@#",
".#@@@@@@@@@@@@@@@@@@@#",
".#@@@@@@@@@@@@@@@@@@@#",
".#@@@@@@@@@@@@@@@@@@@#",
".#@@@@@@@@@@@@@@@@@@@#",
".#@@@@@@@@@@@@@@@@@@@#",
".#@@@@@@@@@@@@@@@@@@@#",
".#@@@@@@@@@@@@@@@@@@@#",
"                      "};
