/* XPM */
static const char * viewtogglehistory_xpm[] = {
"22 22 6 1",
" 	c None",
".	c #E5E5E5",
"+	c #404040",
"@	c #C0C0C0",
"#	c #333333",
"$	c #000000",
"                      ",
".+@@@@@@@@@@@@@@@@@@@+",
".+@@@@@@@@@@@@@@@@@@@+",
".+@@@@@@@@@@@@@@@@@@@+",
".+@@@@@@@@@@@@@@@@@@@+",
".+@@@@@@@@@@@@@@@@@@@+",
".+@@@@@@@@@@@@@@@@@@@+",
".+@@@@@@@@@@@@@@@@@@@+",
".+@@@@@@@@@@@@@@@@@@@+",
".+@@@@@@@@@@@@@@@@@@@+",
".+@@@@@@@@@@@@@@@@@@@+",
".+@@@@@@@@@@@@@@#@@@@+",
".+@@@@@@@@@@@@@@##@@@+",
".+@@$$$$$$$$$$$$$$$@@+",
".+@@@@@@@@@@@@@@$$@@@+",
".+@@@@@@@@@@@@@@$@@@@+",
".+@@@@@@@@@@@@@@@@@@@+",
".$$$$$$$$$$$$$$$$$$$$$",
".$@@@@@@@@@@@@@@@@@@@$",
".$@@@@@@@@@@@@@@@@@@@$",
".$$$$$$$$$$$$$$$$$$$$$",
"                      "};
