/* XPM */
static const char * viewstatusline_xpm[] = {
"22 22 5 1",
" 	c None",
".	c #E5E5E5",
"+	c #404040",
"@	c #C0C0C0",
"#	c #000000",
"                      ",
".+@@@@@@@@@@@@@@@@@@@+",
".+@@@@@@@@@@@@@@@@@@@+",
".+@@@@@@@@@@@@@@@@@@@+",
".+@@@@@@@@@@@@@@@@@@@+",
".+@@@@@@@@@@@@@@@@@@@+",
".+@@@@@@@@@@@@@@@@@@@+",
".+@@@@@@@@@@@@@@@@@@@+",
".+@@@@@@@@@@@@@@@@@@@+",
".+@@@@@@@@@@@@@@@@@@@+",
".+@@@@@@@@@@@@@@@@@@@+",
".+@@@@@@@@@@@@@@@@@@@+",
".+@@@@@@@@@@@@@@@@@@@+",
".+@@@@@@@@@@@@@@@@@@@+",
".+@@@@@@@@@@@@@@@@@@@+",
".+@@@@@@@@@@@@@@@@@@@+",
".+@@@@@@@@@@@@@@@@@@@+",
".#####################",
".#@@@@@@@@@@@@@@@@@@@#",
".#@@@@@@@@@@@@@@@@@@@#",
".#####################",
"                      "};
